<svg width="17" height="17" viewBox="0 0 17 17" fill="none" xmlns="http://www.w3.org/2000/svg">
<path d="M8.03213 13.186H7.76513V13.454H8.03213V13.186ZM8.03213 6.81299V6.54499H7.76513V6.81299H8.03213ZM9.09713 13.186V13.454H9.36513V13.186H9.09713ZM9.09713 6.81299H9.36513V6.54499H9.09713V6.81299ZM8.45013 15.426C12.2751 15.426 15.3761 12.326 15.3761 8.49999H14.8401C14.8401 10.1947 14.1669 11.82 12.9685 13.0184C11.7702 14.2168 10.1449 14.89 8.45013 14.89V15.426ZM1.52413 8.49999C1.52413 12.325 4.62413 15.426 8.45013 15.426V14.89C6.7554 14.89 5.13007 14.2168 3.93172 13.0184C2.73336 11.82 2.06013 10.1947 2.06013 8.49999H1.52413ZM8.45013 1.57399C6.61324 1.57399 4.85158 2.3037 3.55271 3.60257C2.25383 4.90145 1.52413 6.66311 1.52413 8.49999H2.06013C2.06013 6.80526 2.73336 5.17994 3.93172 3.98158C5.13007 2.78322 6.7554 2.10999 8.45013 2.10999V1.57399ZM15.3761 8.49999C15.3761 4.67499 12.2761 1.57399 8.45013 1.57399V2.10999C10.1449 2.10999 11.7702 2.78322 12.9685 3.98158C14.1669 5.17994 14.8401 6.80526 14.8401 8.49999H15.3761ZM8.45013 16.268C9.47024 16.268 10.4804 16.0671 11.4228 15.6767C12.3653 15.2863 13.2216 14.7141 13.9429 13.9928C14.6643 13.2715 15.2364 12.4151 15.6268 11.4727C16.0172 10.5302 16.2181 9.5201 16.2181 8.49999H15.6821C15.6821 10.418 14.9202 12.2575 13.5639 13.6138C12.2077 14.9701 10.3682 15.732 8.45013 15.732V16.268ZM0.682129 8.49999C0.682129 10.5602 1.50054 12.536 2.95732 13.9928C4.41411 15.4496 6.38993 16.268 8.45013 16.268V15.732C6.53208 15.732 4.6926 14.9701 3.33633 13.6138C1.98007 12.2575 1.21813 10.418 1.21813 8.49999H0.682129ZM8.45013 0.731995C6.38993 0.731995 4.41411 1.55041 2.95732 3.00719C1.50054 4.46397 0.682129 6.43979 0.682129 8.49999H1.21813C1.21813 6.58195 1.98007 4.74246 3.33633 3.3862C4.6926 2.02994 6.53208 1.26799 8.45013 1.26799V0.731995ZM16.2181 8.49999C16.2181 7.47989 16.0172 6.46977 15.6268 5.52731C15.2364 4.58485 14.6643 3.72851 13.9429 3.00719C13.2216 2.28586 12.3653 1.71368 11.4228 1.3233C10.4804 0.93292 9.47024 0.731995 8.45013 0.731995V1.26799C10.3682 1.26799 12.2077 2.02994 13.5639 3.3862C14.9202 4.74246 15.6821 6.58195 15.6821 8.49999H16.2181ZM8.30013 13.186V6.81299H7.76513V13.186H8.30013ZM9.09713 12.918H8.03213V13.454H9.09713V12.918ZM8.82913 6.81299V13.186H9.36513V6.81299H8.82913ZM8.03313 7.08099H9.09713V6.54499H8.03213V7.08099H8.03313ZM8.03413 4.29799C8.03413 4.00799 8.27413 3.76799 8.56413 3.76799V3.23199C7.97813 3.23199 7.49913 3.71199 7.49913 4.29799H8.03413ZM8.56413 4.82799C8.42381 4.82721 8.28946 4.77112 8.19023 4.67189C8.09101 4.57267 8.03492 4.43832 8.03413 4.29799H7.50013C7.50013 4.88499 7.97913 5.36399 8.56613 5.36399V4.82999L8.56413 4.82799ZM9.09513 4.29799C9.09513 4.58899 8.85413 4.82799 8.56413 4.82799L8.56513 5.36399C9.15213 5.36399 9.63113 4.88499 9.63113 4.29799H9.09513ZM8.56413 3.76799C8.85413 3.76799 9.09513 4.00799 9.09513 4.29799H9.63113C9.63113 3.71099 9.15013 3.23199 8.56413 3.23199V3.76799Z" fill="black"/>
</svg>
